<svg width="24" height="25" viewBox="0 0 24 25" fill="none" xmlns="http://www.w3.org/2000/svg">
<g clip-path="url(#clip0_606_152)">
<mask id="mask0_606_152" style="mask-type:luminance" maskUnits="userSpaceOnUse" x="0" y="0" width="24" height="25">
<path d="M24 0.72168H0V24.7217H24V0.72168Z" fill="white"/>
</mask>
<g mask="url(#mask0_606_152)">
<path d="M2 8.72168C2 4.72168 3 3.72168 7 3.72168H17C21 3.72168 22 4.72168 22 8.72168V16.7217C22 20.7217 21 21.7217 17 21.7217H7C3 21.7217 2 20.7217 2 16.7217V13.1217" stroke="black" stroke-width="1.5" stroke-linecap="round" stroke-linejoin="round"/>
<path d="M14 8.72168H19" stroke="black" stroke-width="1.5" stroke-linecap="round" stroke-linejoin="round"/>
<path d="M15 12.7217H19" stroke="black" stroke-width="1.5" stroke-linecap="round" stroke-linejoin="round"/>
<path d="M17 16.7217H19" stroke="black" stroke-width="1.5" stroke-linecap="round" stroke-linejoin="round"/>
<path d="M8.49994 12.0116C9.49958 12.0116 10.3099 11.2013 10.3099 10.2016C10.3099 9.20197 9.49958 8.3916 8.49994 8.3916C7.50031 8.3916 6.68994 9.20197 6.68994 10.2016C6.68994 11.2013 7.50031 12.0116 8.49994 12.0116Z" stroke="black" stroke-width="1.5" stroke-linecap="round" stroke-linejoin="round"/>
<path d="M12 17.0514C11.86 15.6014 10.71 14.4614 9.26 14.3314C8.76 14.2814 8.25 14.2814 7.74 14.3314C6.29 14.4714 5.14 15.6014 5 17.0514" stroke="black" stroke-width="1.5" stroke-linecap="round" stroke-linejoin="round"/>
</g>
</g>
<defs>
<clipPath id="clip0_606_152">
<rect width="24" height="24" fill="white" transform="translate(0 0.72168)"/>
</clipPath>
</defs>
</svg>
