<svg width="24" height="25" viewBox="0 0 24 25" fill="none" xmlns="http://www.w3.org/2000/svg">
<g clip-path="url(#clip0_606_60)">
<mask id="mask0_606_60" style="mask-type:luminance" maskUnits="userSpaceOnUse" x="0" y="0" width="24" height="25">
<path d="M24 0.22168H0V24.2217H24V0.22168Z" fill="white"/>
</mask>
<g mask="url(#mask0_606_60)">
<path d="M9.5 13.9719C9.5 14.9419 10.25 15.7219 11.17 15.7219H13.05C13.85 15.7219 14.5 15.0419 14.5 14.1919C14.5 13.2819 14.1 12.9519 13.51 12.7419L10.5 11.6919C9.91 11.4819 9.51001 11.1619 9.51001 10.2419C9.51001 9.40191 10.16 8.71191 10.96 8.71191H12.84C13.76 8.71191 14.51 9.49191 14.51 10.4619" stroke="black" stroke-width="1.5" stroke-linecap="round" stroke-linejoin="round"/>
<path d="M12 7.72168V16.7217" stroke="black" stroke-width="1.5" stroke-linecap="round" stroke-linejoin="round"/>
<path d="M17 3.22168V7.22168H21" stroke="black" stroke-width="1.5" stroke-linecap="round" stroke-linejoin="round"/>
<path d="M22 2.22168L17 7.22168" stroke="black" stroke-width="1.5" stroke-linecap="round" stroke-linejoin="round"/>
<path d="M12 2.22168C6.48 2.22168 2 6.70168 2 12.2217C2 16.1617 4.28001 19.5717 7.60001 21.2017" stroke="black" stroke-width="1.5" stroke-linecap="round" stroke-linejoin="round"/>
<path d="M22 12.2217C22 17.7417 17.52 22.2217 12 22.2217" stroke="black" stroke-width="1.5" stroke-linecap="round" stroke-linejoin="round"/>
</g>
</g>
<defs>
<clipPath id="clip0_606_60">
<rect width="24" height="24" fill="white" transform="translate(0 0.22168)"/>
</clipPath>
</defs>
</svg>
