<svg width="24" height="25" viewBox="0 0 24 25" fill="none" xmlns="http://www.w3.org/2000/svg">
<path d="M12.12 13.5017C12.05 13.4917 11.96 13.4917 11.88 13.5017C10.12 13.4417 8.72 12.0017 8.72 10.2317C8.72 8.42166 10.18 6.95166 12 6.95166C13.81 6.95166 15.28 8.42166 15.28 10.2317C15.27 12.0017 13.88 13.4417 12.12 13.5017Z" stroke="black" stroke-width="1.5" stroke-linecap="round" stroke-linejoin="round"/>
<path d="M18.74 20.1017C16.96 21.7317 14.6 22.7217 12 22.7217C9.40001 22.7217 7.04001 21.7317 5.26001 20.1017C5.36001 19.1617 5.96001 18.2417 7.03001 17.5217C9.77001 15.7017 14.25 15.7017 16.97 17.5217C18.04 18.2417 18.64 19.1617 18.74 20.1017Z" stroke="black" stroke-width="1.5" stroke-linecap="round" stroke-linejoin="round"/>
<path d="M12 22.7217C17.5228 22.7217 22 18.2445 22 12.7217C22 7.19883 17.5228 2.72168 12 2.72168C6.47715 2.72168 2 7.19883 2 12.7217C2 18.2445 6.47715 22.7217 12 22.7217Z" stroke="black" stroke-width="1.5" stroke-linecap="round" stroke-linejoin="round"/>
</svg>
